<?xml version="1.0" encoding="UTF-8" standalone="no"?>
<!-- Created with Inkscape (http://www.inkscape.org/) -->

<svg
   width="32.716591mm"
   height="93.482002mm"
   viewBox="0 0 32.716591 93.482003"
   version="1.1"
   id="svg1"
   xml:space="preserve"
   inkscape:export-filename="tc-logo.svg"
   inkscape:export-xdpi="96"
   inkscape:export-ydpi="96"
   xmlns:inkscape="http://www.inkscape.org/namespaces/inkscape"
   xmlns:sodipodi="http://sodipodi.sourceforge.net/DTD/sodipodi-0.dtd"
   xmlns="http://www.w3.org/2000/svg"
   xmlns:svg="http://www.w3.org/2000/svg"><sodipodi:namedview
     id="namedview1"
     pagecolor="#ffffff"
     bordercolor="#000000"
     borderopacity="0.25"
     inkscape:showpageshadow="2"
     inkscape:pageopacity="0.0"
     inkscape:pagecheckerboard="false"
     inkscape:deskcolor="#d1d1d1"
     inkscape:document-units="mm"
     showgrid="true"
     showguides="true"><inkscape:grid
       id="grid1"
       units="mm"
       originx="-510.04773"
       originy="-18.171427"
       spacingx="0.99999998"
       spacingy="1"
       empcolor="#0099e5"
       empopacity="0.30196078"
       color="#0099e5"
       opacity="0.14901961"
       empspacing="5"
       dotted="false"
       gridanglex="30"
       gridanglez="30"
       visible="true" /></sodipodi:namedview><defs
     id="defs1"><linearGradient
       id="swatch185"
       inkscape:swatch="solid"><stop
         style="stop-color:#0f56af;stop-opacity:1;"
         offset="0"
         id="stop185" /></linearGradient></defs><g
     inkscape:label="Layer 1"
     inkscape:groupmode="layer"
     id="layer1"
     transform="translate(-134.95013,-4.8078566)"><g
       id="g192"
       transform="matrix(0.90461406,0,0,0.95737205,26.795329,3.6077753)"
       style="stroke-width:1.07455"><path
         id="path158"
         style="fill:#323333;fill-opacity:1;stroke-width:1.07455"
         d="m 145.25483,2.9220193 c -0.10634,-5.868e-4 -0.21945,0.031014 -0.4191,0.094568 -0.81493,0.2594206 -2.52369,1.4530346 -3.31711,2.3166544 -2.89149,3.1473298 -4.84279,7.8032233 -5.45238,14.1123163 l -0.11989,1.931148 0.0129,1.332735 c 0.0264,2.68329 0.26714,5.183273 0.75448,7.839315 l 0.28112,1.531173 -1.06454,1.010791 -1.06402,1.010791 -1.10794,1.020093 -1.20923,1.161686 c -4.04151,3.881718 -6.69839,7.076104 -8.61704,10.360608 l -0.73949,1.265555 -0.45269,0.998389 -0.18242,0.362252 c -0.57723,1.147823 -1.25814,3.242463 -1.61075,4.953186 -0.37248,1.806968 -0.37915,4.34861 -0.0171,6.380489 0.0841,0.471853 0.15079,0.89229 0.14779,0.93431 l 0.28887,1.114661 0.33693,0.963248 c 1.10582,3.163368 3.12732,6.116036 5.58571,8.158675 1.91928,1.594705 4.30283,2.843522 6.60218,3.459221 2.47966,0.455393 5.07103,0.519414 7.69049,0.359668 0.60125,-0.07221 0.97186,-0.02129 1.13378,0.103869 0.15012,0.07738 0.35258,0.477061 0.39222,0.753443 -0.002,0.02942 0.20861,1.234719 0.46767,2.678389 0.82664,4.606539 0.99557,6.177251 0.86972,8.094597 -0.14128,2.152231 -0.72266,4.070058 -1.56632,5.167643 -0.79697,1.036849 -2.32146,2.158448 -3.65094,2.686141 -1.29721,0.514911 -2.19741,0.693148 -3.5264,0.698148 -1.37166,0.0052 -1.93651,-0.112915 -2.84633,-0.595312 -0.53595,-0.284169 -1.49542,-1.152738 -1.48312,-1.342554 0.003,-0.04635 0.2398,-0.08343 0.53589,-0.08423 1.35877,-0.0037 2.5164,-0.462396 3.55792,-1.409733 1.15918,-1.054359 1.73791,-2.338811 1.73891,-3.862297 0.001,-1.590064 -0.4054,-2.630498 -1.46348,-3.746541 -0.84576,-0.892187 -1.54265,-1.287303 -2.6541,-1.504301 -1.64288,-0.320783 -3.37897,0.302829 -4.82451,1.73271 -1.26306,1.24938 -2.26673,3.597134 -2.21123,5.173328 0.0989,2.808682 1.54909,4.952093 4.29999,6.356718 0.94283,0.4814 2.17675,0.880182 3.19981,1.034562 1.02238,0.1542 2.8693,0.158005 3.81837,0.0072 1.2259,-0.19456 1.99137,-0.429005 3.11712,-0.954464 2.86345,-1.336528 4.7965,-3.542613 5.60534,-6.397025 0.24104,-0.850598 0.41838,-3.243346 0.33228,-4.484481 -0.0675,-0.972984 -0.37894,-3.240957 -0.89762,-6.539653 -0.21719,-1.381256 -0.39154,-2.568058 -0.38654,-2.637048 l -0.18138,-1.183907 c 2e-4,-0.03426 -0.0216,-0.226008 -0.0481,-0.425814 l -0.0481,-0.363285 0.36019,-0.132809 c 0.17373,-0.06413 0.67798,-0.2877 1.13998,-0.498677 4.40446,-1.603447 7.54537,-5.739272 8.07392,-10.631393 0.002,-0.01078 0.005,-0.02125 0.007,-0.03204 l 0.10025,-0.643888 0.078,-0.996322 -0.0362,-1.017509 c -0.0733,-2.06776 -0.47459,-3.753358 -1.50988,-5.359415 -1.92404,-2.984773 -3.31539,-3.905806 -5.88411,-5.252097 -0.89922,-0.372817 -0.90153,-0.38398 -2.13347,-0.684466 -1.44671,-0.347075 -1.44105,-0.325682 -3.94148,-0.366025 l -0.62942,-5.212936 -0.61082,-4.189408 1.02113,-0.980302 c 1.03188,-0.991002 2.14646,-2.209249 2.74247,-2.997233 l 0.32504,-0.429431 0.76946,-1.000973 0.20929,-0.311092 c 2.38661,-3.544163 4.07442,-7.648227 4.90927,-11.938806 l 0.0961,-0.498161 0.14573,-0.955497 0.13074,-2.138371 c 0.18042,-2.960499 0.0412,-4.924535 -0.52348,-7.388179 -0.77752,-3.3919368 -2.85313,-7.4069885 -4.06952,-7.8729041 -0.17194,-0.065862 -0.27094,-0.098991 -0.37724,-0.099735 z m 0.22944,8.2976837 c 1.07997,-0.06154 1.82929,0.305854 2.25619,1.105359 0.4315,0.808135 0.50872,3.102192 0.15917,4.733045 -0.16064,0.749504 -0.65948,2.281537 -0.9462,2.906799 l -0.19017,0.414962 -0.50901,1.03973 c -0.0113,0.174819 -1.28782,2.298416 -2.0128,3.348632 -1.68205,2.436654 -3.71508,4.665787 -5.13819,5.633248 -0.19044,0.129461 -0.37736,0.235128 -0.41496,0.235128 -0.10753,0 -0.40101,-1.245502 -0.555,-2.353862 -0.20411,-1.469311 -0.23559,-2.83253 -0.0925,-4.041097 0.12253,-1.034937 0.44742,-2.842677 0.54932,-2.988964 l 0.23099,-0.975651 c 0.0163,-0.24461 0.75083,-2.252169 1.13378,-3.161565 0.91853,-2.181172 1.7903,-3.56709 2.8882,-4.591451 0.97516,-0.909852 1.66027,-1.248413 2.64118,-1.304313 z m -7.3272,29.731519 c 0.0128,0.01398 0.21994,1.50149 0.46044,3.305741 0.24041,1.804252 0.45268,3.364714 0.47128,3.467489 l 0.0341,0.187069 0.26143,1.320758 c 0.0233,0.04119 -0.89207,0.42279 -1.33717,0.62987 -1.28118,0.596058 -1.7148,0.751076 -2.83978,1.783511 -0.0381,0.03493 -0.0715,0.07184 -0.10904,0.10697 -2.97857,2.409103 -4.73054,6.143079 -4.74235,10.107393 0.005,5.60764 3.46765,10.556832 8.53902,12.20339 -1.42273,0.115515 -2.74071,0.01866 -4.23954,-0.310576 -5.40047,-1.186295 -9.2958,-5.205952 -10.12651,-10.450008 l -0.10955,-0.691431 -0.0222,-0.996838 -0.0367,-0.342615 c -0.0442,-0.410472 0.11244,-1.615233 0.36587,-2.813265 0.6801,-3.215066 2.00022,-5.820439 4.65967,-9.194787 l 0.27595,-0.34985 0.97513,-1.07952 c 0.0997,-0.229771 2.29134,-2.410878 3.76463,-3.746542 1.54756,-1.40298 3.69803,-3.199159 3.75533,-3.136759 z m 4.40955,9.158097 c 6.06396,1.74e-4 10.97968,5.205794 10.97969,11.627197 -1e-5,6.421404 -4.91573,11.627024 -10.97969,11.627198 -6.06416,1.3e-4 -10.9802,-5.205579 -10.98021,-11.627198 1e-5,-6.421618 4.91605,-11.627327 10.98021,-11.627197 z"
         sodipodi:nodetypes="sssccccccccccccccscccsccccsssscssssccssssccsssscccccccccccscccccccccccccccsssssscccssscscccsscccccsscccsscccscccsscscscs" /><g
         id="g174"
         style="stroke-width:1.07455"><path
           id="path171"
           style="fill:#323333;fill-opacity:1;stroke:#323232;stroke-width:0.136468;stroke-linecap:round;stroke-miterlimit:3.8;stroke-dasharray:0.0341171, 0.0341171;stroke-dashoffset:0;stroke-opacity:1;paint-order:fill markers stroke"
           d="m 148.62729,57.177204 1.47437,0.01749 m -15.3554,0.353055 h 1.90385 m 4.55124,-1.013735 h 2.76957 m 9.92147,6.454825 -4.63307,-7.095685 -2.63257,5.251352 -4.04404,-7.020264 -4.02118,7.099592 -2.79099,-5.315012 -4.61006,7.34403 z"
           sodipodi:nodetypes="cccccccccccccc" /><path
           style="fill:#ffffff;fill-opacity:1;stroke:#313131;stroke-width:0.136468;stroke-linecap:round;stroke-miterlimit:3.8;stroke-dasharray:0.0341171, 0.0341171;stroke-dashoffset:0;stroke-opacity:1;paint-order:fill markers stroke"
           d="m 141.54349,55.984647 1.04949,-1.853768 1.02511,1.835687 z"
           id="path172"
           sodipodi:nodetypes="cccc" /><path
           style="fill:#ffffff;fill-opacity:1;stroke:#373737;stroke-width:0.136468;stroke-linecap:round;stroke-miterlimit:3.8;stroke-dasharray:0.0341171, 0.0341171;stroke-dashoffset:0;stroke-opacity:1;paint-order:fill markers stroke"
           d="m 148.57179,57.228666 0.70309,-1.584969 0.85712,1.59089 z"
           id="path173"
           sodipodi:nodetypes="cccc" /><path
           style="fill:#ffffff;fill-opacity:1;stroke:#3f3f3f;stroke-width:0.136467;stroke-linecap:round;stroke-miterlimit:3.8;stroke-dasharray:0.0341171, 0.0341171;stroke-dashoffset:0;stroke-opacity:1;paint-order:fill markers stroke"
           d="m 134.82334,57.572349 0.96018,-1.592968 0.76596,1.606438 z"
           id="path174"
           sodipodi:nodetypes="cccc" /><path
           id="path175"
           style="opacity:1;mix-blend-mode:screen;fill:#0f56af;fill-opacity:1;stroke:none;stroke-width:0.136468;stroke-linecap:round;stroke-miterlimit:3.8;stroke-dasharray:0.0341171, 0.0341171;paint-order:fill markers stroke"
           d="m 153.58116,63.076643 c -0.50923,3.931809 -2.43642,7.217762 -5.58364,8.992725 -3.14721,1.774964 -7.5675,1.808701 -10.76226,-0.0894 -3.27275,-1.944436 -4.91499,-5.059258 -5.60869,-8.657033 l 10.80996,-0.252403 z"
           sodipodi:nodetypes="cssccc" /></g></g></g></svg>
