<?xml version="1.0" encoding="UTF-8" standalone="no"?>
<!-- Created with Inkscape (http://www.inkscape.org/) -->

<svg
   width="32.716591mm"
   height="93.482002mm"
   viewBox="0 0 32.716591 93.482003"
   version="1.1"
   id="svg1"
   xml:space="preserve"
   inkscape:export-filename="tc-logo.svg"
   inkscape:export-xdpi="96"
   inkscape:export-ydpi="96"
   inkscape:version="1.3 (0e150ed, 2023-07-21)"
   sodipodi:docname="ow-tc-logo.svg"
   xmlns:inkscape="http://www.inkscape.org/namespaces/inkscape"
   xmlns:sodipodi="http://sodipodi.sourceforge.net/DTD/sodipodi-0.dtd"
   xmlns="http://www.w3.org/2000/svg"
   xmlns:svg="http://www.w3.org/2000/svg"><sodipodi:namedview
     id="namedview1"
     pagecolor="#ffffff"
     bordercolor="#000000"
     borderopacity="0.25"
     inkscape:showpageshadow="2"
     inkscape:pageopacity="0.0"
     inkscape:pagecheckerboard="false"
     inkscape:deskcolor="#d1d1d1"
     inkscape:document-units="mm"
     showgrid="true"
     showguides="true"
     inkscape:zoom="1.3251145"
     inkscape:cx="64.145398"
     inkscape:cy="178.85246"
     inkscape:window-width="1680"
     inkscape:window-height="691"
     inkscape:window-x="0"
     inkscape:window-y="25"
     inkscape:window-maximized="0"
     inkscape:current-layer="layer1"><inkscape:grid
       id="grid1"
       units="mm"
       originx="-510.04773"
       originy="-18.171427"
       spacingx="0.99999998"
       spacingy="1"
       empcolor="#0099e5"
       empopacity="0.30196078"
       color="#0099e5"
       opacity="0.14901961"
       empspacing="5"
       dotted="false"
       gridanglex="30"
       gridanglez="30"
       visible="true" /></sodipodi:namedview><defs
     id="defs1"><linearGradient
       id="swatch185"
       inkscape:swatch="solid"><stop
         style="stop-color:#0f56af;stop-opacity:1;"
         offset="0"
         id="stop185" /></linearGradient></defs><g
     inkscape:label="Layer 1"
     inkscape:groupmode="layer"
     id="layer1"
     transform="translate(-134.95013,-4.8078566)"><g
       id="g1"
       transform="translate(0,0.19966828)"><g
         id="g2"><path
           id="path158"
           style="fill:#323333;fill-opacity:1;stroke-width:0.999997"
           d="m 158.19489,6.4052349 c -0.0962,-5.618e-4 -0.19852,0.029692 -0.37912,0.090537 -0.7372,0.248362 -2.28297,1.3910947 -3.00071,2.2179001 -2.61568,3.013165 -4.38085,7.470588 -4.9323,13.510737 l -0.10845,1.848827 0.0117,1.275923 c 0.0239,2.568907 0.24166,4.962321 0.68251,7.505141 l 0.25431,1.465903 -0.963,0.967703 -0.96253,0.967703 -1.00226,0.976608 -1.09388,1.112166 c -3.65601,3.716248 -6.05946,6.774464 -7.7951,9.918957 l -0.66895,1.211607 -0.40951,0.955829 -0.16502,0.34681 c -0.52217,1.098894 -1.13813,3.104244 -1.45711,4.742042 -0.33695,1.729941 -0.34298,4.163238 -0.0155,6.108502 0.0761,0.451739 0.13641,0.854253 0.1337,0.894482 l 0.26131,1.067145 0.30479,0.922187 c 1.00034,3.02852 2.82902,5.855322 5.05291,7.810888 1.73621,1.526726 3.89241,2.722308 5.97243,3.311761 2.24313,0.435981 4.58732,0.497273 6.95692,0.344336 0.5439,-0.06913 0.87916,-0.02038 1.02564,0.09944 0.1358,0.07408 0.31895,0.456725 0.35481,0.721326 -0.002,0.02817 0.18871,1.182085 0.42306,2.564214 0.74779,4.410172 0.9006,5.913928 0.78676,7.749541 -0.12781,2.060486 -0.65373,3.89656 -1.41692,4.947357 -0.72095,0.992651 -2.10002,2.066438 -3.30269,2.571637 -1.17347,0.492961 -1.98781,0.6636 -3.19003,0.668387 -1.24082,0.005 -1.75179,-0.108102 -2.57483,-0.569935 -0.48483,-0.272055 -1.35278,-1.103599 -1.34165,-1.285324 0.003,-0.04437 0.21693,-0.07987 0.48477,-0.08064 1.22916,-0.0035 2.27637,-0.442685 3.21855,-1.349639 1.04861,-1.009414 1.57213,-2.239112 1.57304,-3.697655 9e-4,-1.522283 -0.36673,-2.518366 -1.32389,-3.586834 -0.76508,-0.854155 -1.3955,-1.232428 -2.40093,-1.440176 -1.48617,-0.307108 -3.05667,0.28992 -4.36432,1.658848 -1.14258,1.196122 -2.05052,3.443796 -2.00031,4.9528 0.0895,2.688954 1.40133,4.740996 3.88983,6.085744 0.8529,0.460879 1.96912,0.842662 2.89459,0.990461 0.92486,0.147627 2.59561,0.15127 3.45415,0.0069 1.10897,-0.186266 1.80143,-0.410717 2.8198,-0.913777 2.59031,-1.279555 4.33898,-3.391599 5.07066,-6.124333 0.21805,-0.814339 0.37848,-3.105089 0.30059,-4.293317 -0.0611,-0.931508 -0.34279,-3.102801 -0.812,-6.260881 -0.19647,-1.322376 -0.35419,-2.458587 -0.34967,-2.524636 l -0.16408,-1.133439 c 1.8e-4,-0.0328 -0.0195,-0.216374 -0.0435,-0.407663 l -0.0435,-0.347799 0.32583,-0.127147 c 0.15716,-0.0614 0.61331,-0.275436 1.03124,-0.47742 3.98434,-1.535095 6.82565,-5.494618 7.30378,-10.178198 0.002,-0.01032 0.005,-0.02034 0.006,-0.03067 l 0.0907,-0.616441 0.0706,-0.953851 -0.0327,-0.974134 c -0.0663,-1.979616 -0.42932,-3.59336 -1.36586,-5.130954 -1.74052,-2.857539 -2.99915,-3.73931 -5.32285,-5.028211 -0.81345,-0.356925 -0.81554,-0.367612 -1.92997,-0.655289 -1.30871,-0.33228 -1.30359,-0.311799 -3.56552,-0.350422 l -0.56938,-4.990719 -0.55255,-4.010822 0.92372,-0.938514 c 0.93346,-0.948758 1.94172,-2.115073 2.48088,-2.869467 l 0.29404,-0.411125 0.69606,-0.958304 0.18933,-0.297831 c 2.15896,-3.393082 3.68578,-7.322199 4.44099,-11.429879 l 0.0869,-0.476925 0.13183,-0.914767 0.11827,-2.047216 c 0.16321,-2.834299 0.0373,-4.714612 -0.47355,-7.073236 -0.70336,-3.247346 -2.58098,-7.0912438 -3.68135,-7.5372984 -0.15554,-0.063054 -0.24509,-0.094771 -0.34125,-0.095484 z m 0.20756,7.9439701 c 0.97695,-0.05892 1.6548,0.292816 2.04098,1.05824 0.39034,0.773686 0.46019,2.969952 0.14398,4.531285 -0.14531,0.717554 -0.59657,2.18428 -0.85594,2.782888 l -0.17203,0.397273 -0.46046,0.995409 c -0.0102,0.167367 -1.16498,2.200439 -1.82081,3.205886 -1.5216,2.332785 -3.36071,4.466894 -4.64808,5.393115 -0.17227,0.123942 -0.34136,0.225105 -0.37537,0.225105 -0.0973,0 -0.36276,-1.192409 -0.50207,-2.253522 -0.18464,-1.406677 -0.21311,-2.711785 -0.0837,-3.868833 0.11084,-0.99082 0.40474,-2.7215 0.49692,-2.861551 l 0.20896,-0.934061 c 0.0147,-0.234183 0.67921,-2.156164 1.02563,-3.026794 0.83092,-2.088193 1.61953,-3.415032 2.61271,-4.395727 0.88214,-0.871067 1.5019,-1.195196 2.38925,-1.248713 z m -6.62829,28.464126 c 0.0116,0.01338 0.19896,1.437484 0.41652,3.164824 0.21748,1.72734 0.4095,3.221283 0.42632,3.319677 l 0.0309,0.179094 0.23649,1.264457 c 0.0211,0.03943 -0.80697,0.404768 -1.20962,0.60302 -1.15897,0.570649 -1.55123,0.719059 -2.5689,1.707484 -0.0345,0.03344 -0.0647,0.06878 -0.0986,0.10241 -2.69446,2.306408 -4.27932,5.881212 -4.29,9.676535 0.005,5.368598 3.13689,10.106816 7.72452,11.683185 -1.28702,0.110591 -2.47929,0.01786 -3.83515,-0.297337 -4.88534,-1.135726 -8.40911,-4.984033 -9.16058,-10.004546 l -0.0991,-0.661956 -0.0201,-0.954345 -0.0332,-0.32801 c -0.04,-0.392975 0.10171,-1.546379 0.33097,-2.693341 0.61522,-3.078015 1.80942,-5.572326 4.2152,-8.802832 l 0.24963,-0.334937 0.88211,-1.033502 c 0.0902,-0.219977 2.07278,-2.308108 3.40554,-3.586835 1.39995,-1.343174 3.34529,-3.062785 3.39713,-3.003045 z m 3.98894,8.767706 c 5.48554,1.66e-4 9.93237,4.983881 9.93238,11.131553 -1e-5,6.147673 -4.44684,11.131388 -9.93238,11.131555 -5.48573,1.24e-4 -9.93285,-4.983676 -9.93285,-11.131555 0,-6.147877 4.44712,-11.131678 9.93285,-11.131553 z"
           sodipodi:nodetypes="sssccccccccccccccscccsccccsssscssssccssssccsssscccccccccccscccccccccccccccsssssscccssscscccsscccccsscccsscccscccsscscscs" /><path
           id="path171"
           style="fill:#323333;fill-opacity:1;stroke:#323232;stroke-width:0.127;stroke-linecap:round;stroke-miterlimit:3.8;stroke-dasharray:0.03175, 0.03175;stroke-dashoffset:0;stroke-opacity:1;paint-order:fill markers stroke"
           d="m 161.24567,58.347632 1.33373,0.01675 m -13.89071,0.338005 h 1.72225 m 4.11712,-0.970522 h 2.50539 m 8.9751,6.179669 -4.19114,-6.79321 -2.38146,5.027497 -3.6583,-6.721004 -3.63761,6.796951 -2.52477,-5.088444 -4.17033,7.030969 z"
           sodipodi:nodetypes="cccccccccccccc" /><path
           style="fill:#ffffff;fill-opacity:1;stroke:#313131;stroke-width:0.127;stroke-linecap:round;stroke-miterlimit:3.8;stroke-dasharray:0.03175, 0.03175;stroke-dashoffset:0;stroke-opacity:1;paint-order:fill markers stroke"
           d="m 154.83756,57.205912 0.94938,-1.774746 0.92733,1.757435 z"
           id="path172"
           sodipodi:nodetypes="cccc" /><path
           style="fill:#ffffff;fill-opacity:1;stroke:#373737;stroke-width:0.127;stroke-linecap:round;stroke-miterlimit:3.8;stroke-dasharray:0.03175, 0.03175;stroke-dashoffset:0;stroke-opacity:1;paint-order:fill markers stroke"
           d="m 161.19546,58.396901 0.63602,-1.517405 0.77537,1.523073 z"
           id="path173"
           sodipodi:nodetypes="cccc" /><path
           style="fill:#ffffff;fill-opacity:1;stroke:#3f3f3f;stroke-width:0.126999;stroke-linecap:round;stroke-miterlimit:3.8;stroke-dasharray:0.03175, 0.03175;stroke-dashoffset:0;stroke-opacity:1;paint-order:fill markers stroke"
           d="m 148.75842,58.725933 0.86859,-1.525063 0.6929,1.537959 z"
           id="path174"
           sodipodi:nodetypes="cccc" /><path
           id="path175"
           style="mix-blend-mode:screen;fill:#0f56af;fill-opacity:1;stroke:none;stroke-width:0.127;stroke-linecap:round;stroke-miterlimit:3.8;stroke-dasharray:0.03175, 0.03175;paint-order:fill markers stroke"
           d="m 165.72701,63.99559 c -0.46066,3.764204 -2.20402,6.910084 -5.05104,8.609384 -2.84701,1.699301 -6.84567,1.7316 -9.7357,-0.08559 -2.96057,-1.861549 -4.44616,-4.843592 -5.0737,-8.288002 l 9.77885,-0.241643 z"
           sodipodi:nodetypes="cssccc" /></g></g></g></svg>
